<svg xmlns="http://www.w3.org/2000/svg" width="483.737" height="238.5" viewBox="0 0 483.737 238.5">
  <g id="bg1" transform="translate(0 0.002)">
    <rect id="Rectangle_20" data-name="Rectangle 20" width="13.323" height="13.323" transform="translate(289.595 7.627)" fill="#6c63ff" opacity="0.2"/>
    <rect id="Rectangle_21" data-name="Rectangle 21" width="13.323" height="13.323" transform="translate(307.828 7.627)" fill="#6c63ff"/>
    <rect id="Rectangle_22" data-name="Rectangle 22" width="13.323" height="13.323" transform="translate(326.009 7.627)" fill="#6c63ff" opacity="0.2"/>
    <rect id="Rectangle_23" data-name="Rectangle 23" width="13.323" height="13.323" transform="translate(344.243 7.627)" fill="#6c63ff" opacity="0.7"/>
    <rect id="Rectangle_24" data-name="Rectangle 24" width="13.323" height="13.323" transform="translate(289.595 24.554)" fill="#6c63ff" opacity="0.4"/>
    <rect id="Rectangle_25" data-name="Rectangle 25" width="13.323" height="13.323" transform="translate(307.828 24.554)" fill="#6c63ff" opacity="0.2"/>
    <rect id="Rectangle_26" data-name="Rectangle 26" width="13.323" height="13.323" transform="translate(326.009 24.554)" fill="#6c63ff" opacity="0.2"/>
    <rect id="Rectangle_27" data-name="Rectangle 27" width="13.323" height="13.323" transform="translate(344.243 24.554)" fill="#6c63ff" opacity="0.2"/>
    <rect id="Rectangle_28" data-name="Rectangle 28" width="13.323" height="13.323" transform="translate(271.361 41.429)" fill="#6c63ff" opacity="0.2"/>
    <rect id="Rectangle_29" data-name="Rectangle 29" width="13.323" height="13.323" transform="translate(289.595 41.429)" fill="#6c63ff"/>
    <rect id="Rectangle_30" data-name="Rectangle 30" width="13.323" height="13.323" transform="translate(307.828 41.429)" fill="#6c63ff" opacity="0.2"/>
    <rect id="Rectangle_31" data-name="Rectangle 31" width="13.323" height="13.323" transform="translate(326.009 41.429)" fill="#6c63ff" opacity="0.2"/>
    <rect id="Rectangle_32" data-name="Rectangle 32" width="13.323" height="13.323" transform="translate(344.243 41.429)" fill="#6c63ff" opacity="0.2"/>
    <rect id="Rectangle_33" data-name="Rectangle 33" width="13.323" height="13.323" transform="translate(289.595 58.305)" fill="#6c63ff" opacity="0.2"/>
    <rect id="Rectangle_34" data-name="Rectangle 34" width="13.323" height="13.323" transform="translate(307.828 58.305)" fill="#6c63ff" opacity="0.2"/>
    <rect id="Rectangle_35" data-name="Rectangle 35" width="13.323" height="13.323" transform="translate(326.009 58.305)" fill="#6c63ff" opacity="0.2"/>
    <rect id="Rectangle_36" data-name="Rectangle 36" width="13.323" height="13.323" transform="translate(344.243 58.305)" fill="#6c63ff" opacity="0.2"/>
    <rect id="Rectangle_37" data-name="Rectangle 37" width="13.323" height="13.323" transform="translate(289.595 75.18)" fill="#6c63ff" opacity="0.2"/>
    <rect id="Rectangle_38" data-name="Rectangle 38" width="13.323" height="13.323" transform="translate(307.828 75.18)" fill="#6c63ff" opacity="0.2"/>
    <rect id="Rectangle_39" data-name="Rectangle 39" width="13.323" height="13.323" transform="translate(326.009 75.18)" fill="#6c63ff" opacity="0.2"/>
    <rect id="Rectangle_40" data-name="Rectangle 40" width="13.323" height="13.323" transform="translate(344.243 75.18)" fill="#6c63ff" opacity="0.2"/>
    <rect id="Rectangle_41" data-name="Rectangle 41" width="13.323" height="13.323" transform="translate(362.477 75.18)" fill="#6c63ff" opacity="0.2"/>
    <circle id="Ellipse_13" data-name="Ellipse 13" cx="18.234" cy="18.234" r="18.234" transform="translate(308.507 87.771)" fill="#767d9f"/>
    <path id="Path_88" data-name="Path 88" d="M732.313,306.8c1.828,7.941,3.344,15.935,4.65,23.98.366,2.4.732,4.911-.157,7.158-.731,1.881-2.194,3.344-3.344,5.016s-2.038,3.762-1.306,5.642,2.769,2.926,4.7,3.448c5.642,1.515,11.6.418,17.189-1.2a22.434,22.434,0,0,0,13.323-8.725c8.15-9.874,13.479-21.734,18.547-33.541a20.5,20.5,0,0,1-17.293-6.949c-2.038-2.4-3.553-5.8-2.4-8.725-3.4,1.881-7.419,1.985-11.128,3.291a44.367,44.367,0,0,0-6.531,3.187c-2.508,1.463-4.963,2.926-7.471,4.441C738.269,305.491,735.6,307.006,732.313,306.8Z" transform="translate(-406.513 -223.99)" fill="#f9b7b7"/>
    <path id="Path_89" data-name="Path 89" d="M733.824,330.317c-3.187,6.217-7.367,12.173-13.27,15.883s-13.9,4.7-19.853,1.045c-2.926-1.776-5.12-4.493-7.68-6.792s-5.747-4.232-9.2-3.971c-3.762.314-6.74,3.291-9.3,6.113a71.632,71.632,0,0,0-10.292,13.845c-5.225,9.77-6.479,21.211-6.217,32.287s1.829,22.1,1.881,33.176c.052,13.636-2.246,27.167-4.6,40.542,21.473-2.665,43,3.135,64.47,5.329,13.793,1.411,27.638,1.411,41.483,1.358,2.456,0,5.015-.052,7.053-1.411a9.32,9.32,0,0,0,2.926-3.448c1.933-3.553,2.664-7.576,3.239-11.546,1.358-10.031,1.411-20.219,1.411-30.354.1-24.555.157-49.215-2.926-73.561-.784-6.008-1.724-12.016-4.075-17.607s-6.06-10.763-11.285-13.793c-3.4-1.933-11.181-5.277-15.151-3.344C738.056,316.263,735.966,326.189,733.824,330.317Z" transform="translate(-369.937 -233.821)" fill="#767d9f"/>
    <path id="Path_90" data-name="Path 90" d="M804.581,395.688c-.784-15.151-4.127-31.347,2.926-44.774,1.724-3.291-4.441-7.419-2.56-10.606a47.722,47.722,0,0,0,5.277-12.487,9.428,9.428,0,0,0,.366-4.65c-.679-2.769-3.448-4.389-5.747-6.113-2.56-1.881-3.866-7.523-4.7-10.606s6.583.627,9.561-.47c4.127-1.515,9.352-.575,13.479.993a22.6,22.6,0,0,0,7.262.993,99.872,99.872,0,0,0,14.263-.314,32.8,32.8,0,0,1,6.374-.522c5.433.313,10.188,4.023,13.375,8.411s5.277,9.509,7.889,14.315c2.194,3.971,4.807,7.732,6.687,11.86a72.143,72.143,0,0,1,3.762,11.494l2.664,10.031a14.107,14.107,0,0,1,.679,4.441,13.061,13.061,0,0,1-1.567,4.545,85.06,85.06,0,0,1-9.77,14.89c-5.643,6.9-12.487,13.166-15.83,21.42a55.23,55.23,0,0,0-2.717,10.083A368.068,368.068,0,0,0,850.557,460a90.9,90.9,0,0,0-19.069-6.374c-3.292-.679-6.583-1.2-9.927-1.567-2.926-.313-6.687.261-9.456-.522-4.65-1.306-5.172-9.2-5.851-13.322a120.037,120.037,0,0,1-1.411-19.853C804.738,410.735,805,403.212,804.581,395.688Z" transform="translate(-439.074 -229.863)" fill="#4c4981"/>
    <path id="Path_91" data-name="Path 91" d="M571.987,417.705c2.194,12.539,4.6,25.13,9.4,36.885-.1.1-.261.209-.366.313-.418.366-.888.679-1.306,1.045a19.643,19.643,0,0,0-3.135,2.351,3.66,3.66,0,0,0-.784,1.306,3.057,3.057,0,0,0,0,2.351c-2.508,1.1-5.381.784-8.2.679-2.4-.1-4.754,0-6.687,1.306-2.664,1.829-3.5,5.381-3.918,8.62-.157,1.2-.313,2.351-.418,3.553-.1,1.1-.209,2.194-.261,3.291a96.109,96.109,0,0,0-.1,10.971c.052.679.052,1.358.1,1.985-8.516-.209-16.3-4.65-23.667-8.986a13.335,13.335,0,0,1-4.493-3.657,8.474,8.474,0,0,1-1.2-5.381,4.023,4.023,0,0,1,.1-.784,19.441,19.441,0,0,1,1.2-4.545,55.5,55.5,0,0,1,10.031-17.032c1.881-2.194,3.97-4.336,4.859-7.053.366-1.2.522-2.456.888-3.657,1.724-5.172,7.994-7.576,10.135-12.591.523-1.2.784-2.508,1.411-3.657a10.2,10.2,0,0,1,2.247-2.508c.366-.313.784-.627,1.149-.94,3.657-2.874,7.21-5.9,10.606-9.143.627-.575,1.254-1.2,1.881-1.829a32.1,32.1,0,0,0,.523,7.105Z" transform="translate(-308.619 -280.197)" fill="#4c4981"/>
    <path id="Path_92" data-name="Path 92" d="M665.529,343.025c-.731.784-1.567,1.567-2.351,2.3l-.209.209-.836.784a19.456,19.456,0,0,0-3.918,4.6l-.1.157c-2.664,4.754-1.672,10.658-.94,16.039a132.963,132.963,0,0,1,1.254,20.376c-.157,9.4-1.254,18.756-1.254,28.16,0,2.142.052,4.284.157,6.374.157,3.448.418,6.949.731,10.4.366,3.814.731,7.576,1.15,11.389.313,2.926.575,5.851.836,8.777.1,1.515.261,3.03.313,4.545.1,1.776.209,3.553.261,5.329h0c.052,1.149.052,2.247.052,3.4v1.933c0,1.2-.052,2.456-.1,3.657q-.078,2.351-.313,4.7c-.157,1.724-.47,3.553-1.672,4.754l-.209.209L656.7,480.9a171.945,171.945,0,0,0-35.161-.627c.261-1.776.47-3.553.731-5.277l.313-2.508c.1-.94.209-1.933.313-2.873l.313-3.135c.261-2.717.522-5.381.731-8.1.313-3.918.522-7.889.679-11.807.052-1.881.157-3.762.157-5.642.052-2.351.1-4.7.1-7s0-4.545-.052-6.844c0-.731-.052-1.515-.1-2.247s-.157-1.358-.261-1.985a23.674,23.674,0,0,0-1.567-4.441l-.313-.784c-.052-.157-.1-.261-.157-.418,3.03-2.664,5.172-6.269,7.21-9.822,3.344-5.695,6.74-11.651,7.314-18.181s-2.717-13.949-8.986-15.935a44.733,44.733,0,0,0-5.277-.993c-1.672-.314-5.12-.94-7.053-2.142q-1.567,1.646-3.135,3.135a11.458,11.458,0,0,1,1.149-4.545l.732.052a1.85,1.85,0,0,1-.1-.522,2.608,2.608,0,0,1,1.2-1.881c2.456-2.09,6.322-2.56,7.889-5.381.627-1.2.784-2.56,1.306-3.814,1.515-3.5,5.8-4.807,8.411-7.628s3.239-6.792,5.329-9.927a15.23,15.23,0,0,1,6.269-5.224,3.2,3.2,0,0,1,.627-.261c4.336-1.829,9.509-2.3,14-2.246,1.724,0,6.269.052,8.464.94a2.184,2.184,0,0,1,.94.575C670.962,335.763,667.253,341.2,665.529,343.025Z" transform="translate(-349.498 -242.611)" fill="#4c4981"/>
    <path id="Path_93" data-name="Path 93" d="M605.741,400.173a31.786,31.786,0,0,1,24.4,2.56,22.893,22.893,0,0,1,9.2,8.777c3.135,5.642,2.978,12.434,2.769,18.913-.1,3.239-.261,6.583-1.672,9.456-1.62,3.344-4.754,5.642-7.889,7.523a22.581,22.581,0,0,1-6.426,2.769c-3.5.784-7.158.1-10.71-.522-3.866-.731-7.993-1.567-10.658-4.441a19.265,19.265,0,0,1-3.291-5.9c-1.2-3.03-2.456-6.113-3.657-9.143-2.09-5.277-2.821-9.665-.052-14.838,1.254-2.351,2.821-4.545,4.075-6.9C602.5,407.174,604.748,400.434,605.741,400.173Z" transform="translate(-341.59 -274.577)" fill="#4c4981"/>
    <path id="Path_94" data-name="Path 94" d="M592.837,546.025v15.621a87.25,87.25,0,0,1-33.8,6.687H418.13l-.209.209-1.672-.209H165.577a108.916,108.916,0,0,1-56.477-15.36V529.1l120.529-13.9h.1l70.217,5.956,18.181,1.567,9.456.784,19.54,1.672,10.031.836,14.629,1.254,2.038.157,10.554.888,14.315,1.2,20.114,1.724,33.541,2.821,23.615,1.985,38.714,3.291,7.367.627.784.052.679.052,9.718.836,10.658.888,1.254.1Z" transform="translate(-109.1 -330.149)" fill="#504f60"/>
    <g id="book" transform="translate(4.188 146.394)">
      <path id="Path_34" data-name="Path 34" d="M121.866,446.81l-57.039-.278L59.16,433.239,79.2,431.784l-3.493-14.575,39.638-5.138L77.389,398.877l3.353-.8,61.033,9.957-3.361,22.745-4.8,12.5Z" transform="translate(-57.588 -391.264)" fill="#6c63ff"/>
      <path id="Path_35" data-name="Path 35" d="M187,698.568s3.5-.56,5.6,1.913c0,0-1.54,1.213-4.853-.467Z" transform="translate(-178.886 -648.868)" fill="#6c63ff"/>
      <path id="Path_36" data-name="Path 36" d="M177.61,698.51s-2.233,2.748-1.133,5.807c0,0,1.82-.728,2.018-4.438Z" transform="translate(-169.863 -648.865)" fill="#6c63ff"/>
      <path id="Path_37" data-name="Path 37" d="M172.76,666.956s1.4-2.568,7,1.026a3.142,3.142,0,0,1-3.22,1.586A3.8,3.8,0,0,1,172.76,666.956Z" transform="translate(-167.019 -621.829)" fill="#6c63ff"/>
      <path id="Path_38" data-name="Path 38" d="M154.656,670.276s-2.9-.333-3.186,6.316a3.144,3.144,0,0,0,3.15-1.721A3.789,3.789,0,0,0,154.656,670.276Z" transform="translate(-149.277 -625.334)" fill="#6c63ff"/>
      <path id="Path_71" data-name="Path 71" d="M543.439,670.36s-3.778,4.611-.778,11.582L512.5,695.023l-2.895.607L508.27,689.8l.892-7.361v-4.023Z" transform="translate(-446.618 -625.406)" fill="#d5d6db"/>
      <path id="Path_72" data-name="Path 72" d="M59.16,571l41.748-7.611,55.317,8.812-34.359,12.37Z" transform="translate(-57.588 -529.026)" fill="#6c63ff"/>
      <path id="Path_73" data-name="Path 73" d="M59.16,571l41.748-7.611,55.317,8.812-34.359,12.37Z" transform="translate(-57.588 -529.026)" fill="#00cba9"/>
      <path id="Path_74" data-name="Path 74" d="M139.881,652.47s-3.9,7.4.595,14.23l61.908,13.415s-3.843-5.893.2-14.071Z" transform="translate(-138.309 -610.497)" fill="#00cba9"/>
      <path id="Path_75" data-name="Path 75" d="M139.881,652.47s-3.9,7.4.595,14.23l61.908,13.415s-3.843-5.893.2-14.071Z" transform="translate(-138.309 -610.497)" opacity="0.1"/>
      <path id="Path_76" data-name="Path 76" d="M153.851,667.86s-2.231,5.413,0,8.915" transform="translate(-150.434 -623.323)" opacity="0.1"/>
      <path id="Path_77" data-name="Path 77" d="M213.218,744.608,247.78,729.86s1.933.417.683,1.833-34.579,14.331-34.579,14.331L151.31,731.193Z" transform="translate(-149.143 -674.991)" fill="#00cba9"/>
      <path id="Path_78" data-name="Path 78" d="M213.218,744.608,247.78,729.86s1.933.417.683,1.833-34.579,14.331-34.579,14.331L151.31,731.193Z" transform="translate(-149.143 -674.991)" opacity="0.1"/>
      <path id="Path_79" data-name="Path 79" d="M498.4,742.86s-3.333,4,0,10" transform="translate(-437.161 -685.824)" opacity="0.1"/>
      <rect id="Rectangle_169" data-name="Rectangle 169" width="15.76" height="0.167" transform="translate(62.428 61.955) rotate(-18.45)" opacity="0.1"/>
      <rect id="Rectangle_170" data-name="Rectangle 170" width="19.202" height="0.167" transform="translate(62.423 63.297) rotate(-20.82)" opacity="0.1"/>
      <rect id="Rectangle_171" data-name="Rectangle 171" width="22.257" height="0.167" transform="translate(62.523 64.878) rotate(-22.26)" opacity="0.1"/>
      <rect id="Rectangle_172" data-name="Rectangle 172" width="25.62" height="0.167" transform="translate(62.763 66.273) rotate(-24.31)" opacity="0.1"/>
      <rect id="Rectangle_173" data-name="Rectangle 173" width="28.021" height="0.167" transform="matrix(0.916, -0.401, 0.401, 0.916, 62.949, 66.951)" opacity="0.1"/>
      <rect id="Rectangle_174" data-name="Rectangle 174" width="33.532" height="0.167" transform="translate(63.336 68.091) rotate(-23.36)" opacity="0.1"/>
      <path id="Path_80" data-name="Path 80" d="M152.23,583.106l29.329-6.166,17.868,3.416-24.033,7.749Z" transform="translate(-135.149 -540.318)" fill="#fff" opacity="0.3"/>
      <path id="Path_81" data-name="Path 81" d="M558.364,659.69s1.516.612.627,1.556S524,672.06,524,672.06Z" transform="translate(-459.727 -616.514)" fill="#00cba9"/>
      <path id="Path_82" data-name="Path 82" d="M642.737,574.18s-3.776,4.609-.777,11.582L611.8,598.843l-2.895.61-1.333-5.833.9-7.359v-4.028Z" transform="translate(-529.371 -545.254)" fill="#d5d6db"/>
      <path id="Path_83" data-name="Path 83" d="M158.46,474.819l41.746-7.609,55.319,8.812-34.359,12.37Z" transform="translate(-140.341 -448.874)" fill="#3a3768"/>
      <path id="Path_84" data-name="Path 84" d="M239.135,556.29s-3.906,7.4.593,14.23l61.908,13.415s-3.841-5.9.2-14.073Z" transform="translate(-221.022 -530.345)" fill="#3a3768"/>
      <path id="Path_85" data-name="Path 85" d="M239.135,556.29s-3.906,7.4.593,14.23l61.908,13.415s-3.841-5.9.2-14.073l-19.577-4.238Z" transform="translate(-221.022 -530.345)" opacity="0.1"/>
      <path id="Path_86" data-name="Path 86" d="M253.144,571.68s-2.23,5.411,0,8.915" transform="translate(-233.182 -543.171)" opacity="0.1"/>
      <path id="Path_87" data-name="Path 87" d="M312.508,648.428l34.564-14.748s1.931.417.682,1.833-34.579,14.331-34.579,14.331L250.6,635.013Z" transform="translate(-231.887 -594.839)" fill="#3a3768"/>
      <path id="Path_88-2" data-name="Path 88" d="M312.508,648.428l34.564-14.748s1.931.417.682,1.833-34.579,14.331-34.579,14.331L250.6,635.013Z" transform="translate(-231.887 -594.839)" opacity="0.1"/>
      <path id="Path_89-2" data-name="Path 89" d="M597.692,646.68s-3.333,4,0,10" transform="translate(-519.905 -605.672)" opacity="0.1"/>
      <rect id="Rectangle_175" data-name="Rectangle 175" width="15.76" height="0.167" transform="translate(78.976 45.929) rotate(-18.45)" opacity="0.1"/>
      <rect id="Rectangle_176" data-name="Rectangle 176" width="19.202" height="0.167" transform="translate(78.972 47.27) rotate(-20.82)" opacity="0.1"/>
      <rect id="Rectangle_177" data-name="Rectangle 177" width="22.257" height="0.167" transform="translate(79.07 48.849) rotate(-22.26)" opacity="0.1"/>
      <rect id="Rectangle_178" data-name="Rectangle 178" width="25.62" height="0.167" transform="translate(79.312 50.244) rotate(-24.31)" opacity="0.1"/>
      <rect id="Rectangle_179" data-name="Rectangle 179" width="28.021" height="0.167" transform="matrix(0.916, -0.401, 0.401, 0.916, 79.495, 50.92)" opacity="0.1"/>
      <rect id="Rectangle_180" data-name="Rectangle 180" width="33.532" height="0.167" transform="translate(79.884 52.06) rotate(-23.36)" opacity="0.1"/>
      <path id="Path_90-2" data-name="Path 90" d="M251.53,486.926l29.329-6.166,17.867,3.416-24.033,7.749Z" transform="translate(-217.901 -460.166)" fill="#fff" opacity="0.45"/>
      <path id="Path_91-2" data-name="Path 91" d="M657.689,563.51s1.515.612.627,1.555-34.985,10.814-34.985,10.814Z" transform="translate(-542.504 -536.362)" fill="#3a3768"/>
      <path id="Path_92-2" data-name="Path 92" d="M652.162,464.15s-3.778,8.277-.778,15.248l-30.163,9.415-2.888.612L617,483.592l.892-7.361V472.2Z" transform="translate(-537.229 -453.56)" fill="#d5d6db"/>
      <path id="Path_93-2" data-name="Path 93" d="M167.89,364.791l41.748-7.611,55.319,8.812-34.36,12.37Z" transform="translate(-148.199 -357.18)" fill="#ff992b"/>
      <path id="Path_94-2" data-name="Path 94" d="M248.587,446.26s-3.911,7.4.588,14.23L311.084,473.9s-3.843-5.9.2-14.071Z" transform="translate(-228.897 -438.651)" fill="#ff992b"/>
      <path id="Path_95" data-name="Path 95" d="M248.587,446.26s-3.911,7.4.588,14.23L311.084,473.9s-3.843-5.9.2-14.071Z" transform="translate(-228.897 -438.651)" opacity="0.1"/>
      <path id="Path_96" data-name="Path 96" d="M262.581,461.65s-2.231,5.413,0,8.915" transform="translate(-241.045 -451.476)" opacity="0.1"/>
      <path id="Path_97" data-name="Path 97" d="M321.948,545.065l34.562-11.082s1.933.417.683,1.833-34.579,10.665-34.579,10.665L260.04,531.65Z" transform="translate(-239.754 -509.811)" fill="#ff992b"/>
      <path id="Path_98" data-name="Path 98" d="M321.948,545.065l34.562-11.082s1.933.417.683,1.833-34.579,10.665-34.579,10.665L260.04,531.65Z" transform="translate(-239.754 -509.811)" opacity="0.1"/>
      <rect id="Rectangle_181" data-name="Rectangle 181" width="15.76" height="0.167" transform="translate(80.549 27.593) rotate(-18.45)" opacity="0.1"/>
      <rect id="Rectangle_182" data-name="Rectangle 182" width="19.202" height="0.167" transform="translate(80.545 28.935) rotate(-20.82)" opacity="0.1"/>
      <rect id="Rectangle_183" data-name="Rectangle 183" width="22.257" height="0.167" transform="translate(80.641 30.515) rotate(-22.26)" opacity="0.1"/>
      <rect id="Rectangle_184" data-name="Rectangle 184" width="25.62" height="0.167" transform="translate(80.886 31.908) rotate(-24.31)" opacity="0.1"/>
      <rect id="Rectangle_185" data-name="Rectangle 185" width="28.021" height="0.167" transform="matrix(0.916, -0.401, 0.401, 0.916, 81.069, 32.586)" opacity="0.1"/>
      <rect id="Rectangle_186" data-name="Rectangle 186" width="33.532" height="0.167" transform="translate(81.457 33.727) rotate(-23.36)" opacity="0.1"/>
      <path id="Path_100" data-name="Path 100" d="M260.96,376.9l29.329-6.166,17.868,3.416L284.124,381.9Z" transform="translate(-225.76 -368.472)" fill="#fff" opacity="0.3"/>
      <path id="Path_101" data-name="Path 101" d="M667.119,453.48s1.516.612.627,1.556S632.76,465.85,632.76,465.85Z" transform="translate(-550.363 -444.668)" fill="#ff992b"/>
      <path id="Path_145" data-name="Path 145" d="M700.29,532.772a8.223,8.223,0,0,1,7.832-.073" transform="translate(-606.639 -509.898)" fill="none" stroke="#000" stroke-miterlimit="10" stroke-width="1" opacity="0.1"/>
    </g>
    <path id="Path_95-2" data-name="Path 95" d="M511.444,388.557,360.4,362.8l-5.9,29.623,69.277,8.255,21.316,2.664L503.764,391.8Z" transform="translate(-169.291 -173.256)" fill="#9c9ca1"/>
    <path id="Path_96-2" data-name="Path 96" d="M614.3,585.575,690,571.364a2.686,2.686,0,0,1,3.083,2.09,1.613,1.613,0,0,1,.052.522h0a2.581,2.581,0,0,1-2.142,2.56l-73.927,13.845Z" transform="translate(-350.358 -356.951)" fill="#9c9ca1"/>
    <path id="Path_97-2" data-name="Path 97" d="M623.36,503.8a19.036,19.036,0,0,0,6.844-1.62c2.612-1.306,4.65-3.553,7.053-5.172,5.329-3.657,12.434-4.127,18.547-2.038a29.582,29.582,0,0,1,14.733,11.964c2.351,3.553,4.127,8.15,2.456,12.121a15.866,15.866,0,0,1-2.142,3.344l-4.336,5.695a15.649,15.649,0,0,1-2.978,3.187,12.614,12.614,0,0,1-5.643,1.985c-5.329.784-10.71.313-16.039.679-9.2.627-18.129,3.553-27.324,3.448-5.277-.052-10.5-1.149-15.674-2.194l-22.883-4.7c-3.971-.836-8.464-1.985-10.345-5.642a13.151,13.151,0,0,1-1.1-5.329c-.261-5.016,0-10.658,3.5-14.263,3.291-3.4,8.464-4.493,12.382-7,4.807-3.083,6.374-2.09,11.442.209A63.216,63.216,0,0,0,623.36,503.8Z" transform="translate(-326.555 -319.894)" fill="#ffb8b8"/>
    <path id="Path_98-2" data-name="Path 98" d="M623.66,503a19.036,19.036,0,0,0,6.844-1.62c2.612-1.306,4.65-3.553,7.053-5.172,5.329-3.657,12.434-4.127,18.547-2.038a29.583,29.583,0,0,1,14.733,11.964c2.351,3.553,4.127,8.15,2.456,12.121a15.861,15.861,0,0,1-2.142,3.344l-4.336,5.695a15.635,15.635,0,0,1-2.978,3.187,12.614,12.614,0,0,1-5.642,1.985c-5.329.784-10.71.313-16.039.679-9.2.627-18.129,3.553-27.324,3.448-5.277-.052-10.5-1.149-15.674-2.194l-22.883-4.7c-3.971-.836-8.464-1.985-10.344-5.642a13.149,13.149,0,0,1-1.1-5.329c-.261-5.016,0-10.658,3.5-14.263,3.292-3.4,8.464-4.493,12.382-7,4.807-3.082,6.374-2.09,11.442.209A62.172,62.172,0,0,0,623.66,503Z" transform="translate(-326.699 -319.512)" fill="#f7b2b2" opacity="0.05"/>
    <path id="Path_99" data-name="Path 99" d="M729.216,496.882a130.152,130.152,0,0,1-19.592,6.426c-11.285,2.508-23.04,2.09-34.221,4.911-5.9,1.515-11.755,3.918-17.815,3.448A53.026,53.026,0,0,1,649.595,510c-14.838-3.657-31.66-2.456-43.729,6.949a55.251,55.251,0,0,0-10.553,11.494,7.7,7.7,0,0,0,1.829,10.71c.418.261.836.522,1.254.731a45.975,45.975,0,0,0,14.838,3.971c6.844.627,13.74-.366,20.585-1.358,10.136-1.463,20.271-2.873,30.354-4.493,3.6-.575,7.262-1.2,10.919-1.62,26.227-3.292,52.977.731,79.256-2.038a23.173,23.173,0,0,0,7.785-1.776c6.113-2.874,9.143-10.449,7.889-17.084S763.855,503.308,758,499.913c-4.911-2.873-10.24-4.023-15.726-5.224C737.262,493.434,734.127,495,729.216,496.882Z" transform="translate(-340.617 -320.138)" fill="#ffb8b8"/>
    <path id="Path_100-2" data-name="Path 100" d="M898.122,402.757c2.874,3.814,3.5,8.882,3.187,13.636s-1.463,9.456-1.62,14.211c-.209,6.531,1.358,13.061,1.1,19.592a56.465,56.465,0,0,1-2.56,13.427c-1.515,5.172-3.709,10.71-8.464,13.218-6.322,3.291-19.592,1.463-26.279,4.023.627-3.762,6.426-9.247,7-13.009a25.326,25.326,0,0,0,.418-7.941,17.279,17.279,0,0,0-4.859-8.777A25.526,25.526,0,0,0,852.2,443.3c-5.329-.94-18.286-.157-22.518,3.187-.523-3.448,9.2-6.792,12.591-7.523,1.724-.366,3.657-.157,5.015-1.254,2.612-2.038.732-6.113.836-9.4.1-2.612,1.62-5.016,1.933-7.628.523-4.18-2.194-8.464-1.149-12.539a39.383,39.383,0,0,1,1.881-4.284c1.881-4.441,1.045-9.456.052-14.158-.627-2.926-1.2-6.269.418-8.777,1.515-2.351,5.851,6.008,8.62,5.642,9.143-1.306,17.4-8.046,24.764-2.508,3.762,2.821,4.232,5.747,5.747,9.77C891.905,397.637,895.667,399.57,898.122,402.757Z" transform="translate(-453.203 -265.823)" opacity="0.1"/>
    <path id="Path_101-2" data-name="Path 101" d="M901.123,399.544c2.873,3.814,3.5,8.882,3.187,13.636s-1.463,9.456-1.62,14.211c-.209,6.531,1.358,13.061,1.1,19.592a56.462,56.462,0,0,1-2.56,13.427c-1.515,5.172-3.709,10.71-8.464,13.218-6.322,3.292-19.592,1.463-26.279,4.023.627-3.762,6.426-9.247,7-13.009a25.329,25.329,0,0,0,.418-7.941,17.278,17.278,0,0,0-4.859-8.777,25.527,25.527,0,0,0-13.845-7.837c-5.329-.94-18.286-.157-22.518,3.187-.522-3.448,9.2-6.792,12.591-7.523,1.724-.366,3.657-.157,5.016-1.254,2.612-2.038.731-6.113.836-9.4.1-2.612,1.62-5.016,1.933-7.628.522-4.18-2.194-8.464-1.149-12.539a39.392,39.392,0,0,1,1.881-4.284c1.881-4.441,1.045-9.456.052-14.158-.627-2.926-1.2-6.269.418-8.777,1.515-2.351,4.493-3.239,7.262-3.6a35.636,35.636,0,0,1,26.123,6.74c3.762,2.821,4.232,5.747,5.747,9.77C894.905,394.424,898.667,396.357,901.123,399.544Z" transform="translate(-454.636 -262.61)" fill="#4c4981"/>
    <path id="Path_102" data-name="Path 102" d="M301.835,359.59l28.421,104.96a6.593,6.593,0,0,0,5.695,4.807L463.8,481.687a6.562,6.562,0,0,0,7.157-5.9,7.783,7.783,0,0,0-.157-2.194L439.71,346.947a6.557,6.557,0,0,0-6.844-4.963l-125.179,9.352a6.52,6.52,0,0,0-6.008,7.053A4.451,4.451,0,0,0,301.835,359.59Z" transform="translate(-201.054 -247.421)" fill="#9c9ca1"/>
    <ellipse id="Ellipse_14" data-name="Ellipse 14" cx="14.054" cy="14.263" rx="14.054" ry="14.263" transform="translate(340.168 104.176)" fill="#353535"/>
    <path id="Path_103" data-name="Path 103" d="M802.9,337.8s2.978,8.829-5.8,12.539l-1.1,1.933,5.486,5.381s6.74-12.33,6.008-16.666C807.494,340.983,806.449,336.542,802.9,337.8Z" transform="translate(-437.128 -245.323)" fill="#fff"/>
    <circle id="Ellipse_15" data-name="Ellipse 15" cx="13.531" cy="13.531" r="13.531" transform="translate(342.31 105.586)" fill="#fff"/>
    <path id="Path_104" data-name="Path 104" d="M802.389,322.972l-2.142-3.553-3.135-.47c.679-11.7-2.351-15.2-2.351-15.2l-.679-.052L791,303.38l-5.8-5.956V295.7c8.1.993,12.591,4.807,15.047,9.352C804.531,312.993,802.389,322.972,802.389,322.972Z" transform="translate(-431.971 -225.327)" fill="#fff"/>
    <path id="Path_105" data-name="Path 105" d="M794.082,303.127v2.142L791,304.956,785.2,299S794.134,300.985,794.082,303.127Z" transform="translate(-431.971 -226.903)" stroke="#4c4981" stroke-miterlimit="10" stroke-width="1" opacity="0.1"/>
    <path id="Path_106" data-name="Path 106" d="M816.142,331.568,814,328.015V313.7C818.284,321.589,816.142,331.568,816.142,331.568Z" transform="translate(-445.724 -233.923)" stroke="#4c4981" stroke-miterlimit="10" stroke-width="1" opacity="0.1"/>
    <ellipse id="Ellipse_16" data-name="Ellipse 16" cx="7.523" cy="13.74" rx="7.523" ry="13.74" transform="translate(310.538 104.662) rotate(-30)" fill="#353535"/>
    <path id="Path_107" data-name="Path 107" d="M719.539,364.939C723.353,371.522,728,375.91,724.4,378s-14.106,1.045-17.92-5.538-.366-15.673,3.239-17.763S715.725,358.3,719.539,364.939Z" transform="translate(-393.582 -253.292)" fill="#fff"/>
    <path id="Path_108" data-name="Path 108" d="M730.509,252.1c0,21-14.367,41.274-35.422,41.274a38.087,38.087,0,1,1,0-76.173C716.141,217.252,730.509,231.045,730.509,252.1Z" transform="translate(-370.749 -187.839)" opacity="0.1"/>
    <circle id="Ellipse_17" data-name="Ellipse 17" cx="38.034" cy="38.034" r="38.034" transform="translate(286.355 28.368)" fill="#ffb8b8"/>
    <path id="Path_109" data-name="Path 109" d="M677.261,210.58c4.545,1.672,7.21,6.322,11.285,8.934,5.747,3.657,13.218,2.717,19.8.888,3.657-.993,7.471-2.194,11.076-1.1a3.657,3.657,0,0,0,1.672.261c.784-.209,1.149-1.1,1.411-1.881,4.441-13.27,2.456-28.317-4.284-40.594a25.651,25.651,0,0,0-6.687-8.411,27.167,27.167,0,0,0-7.576-3.814,75.015,75.015,0,0,0-15.1-3.709,9.779,9.779,0,0,0-2.769-.1,10.972,10.972,0,0,0-3.5,1.515,36.143,36.143,0,0,1-15.621,4.232c-7.314.261-15.674-1.463-21.316,3.239-6.792,5.642-5.12,16.614-9.509,24.242-2.926,5.068-8.516,8.725-9.456,14.472a13.8,13.8,0,0,0,.313,5.277,21.422,21.422,0,0,0,19.853,15.882,7.367,7.367,0,0,0,4.075-.836,9.927,9.927,0,0,0,2.142-2.038C659.08,219.932,665.924,206.4,677.261,210.58Z" transform="translate(-356.215 -161)" fill="#444053"/>
    <path id="Path_110" data-name="Path 110" d="M722.553,250.209a2.654,2.654,0,0,1-1.411,1.881,3.062,3.062,0,0,1-1.672-.261c-3.6-1.1-7.471.1-11.076,1.1-6.583,1.829-14.054,2.769-19.8-.888-4.075-2.612-6.74-7.314-11.285-8.934-11.285-4.18-18.129,9.352-24.137,16.4a8.852,8.852,0,0,1-2.142,2.037,7.836,7.836,0,0,1-4.075.836A21.46,21.46,0,0,1,627.1,246.5l-.314-1.567v.157a13.8,13.8,0,0,0,.313,5.277,21.422,21.422,0,0,0,19.853,15.883,7.367,7.367,0,0,0,4.075-.836,9.926,9.926,0,0,0,2.142-2.038c6.008-7.105,12.852-20.585,24.137-16.4,4.545,1.672,7.21,6.322,11.285,8.934,5.747,3.657,13.218,2.717,19.8.888,3.657-.993,7.471-2.194,11.076-1.1a3.657,3.657,0,0,0,1.672.261c.784-.209,1.149-1.1,1.411-1.881A47.331,47.331,0,0,0,724.9,237.2,45.738,45.738,0,0,1,722.553,250.209Z" transform="translate(-356.263 -197.39)" opacity="0.1"/>
  </g>
</svg>
